<?xml version="1.0" standalone="no"?>
<!DOCTYPE svg PUBLIC "-//W3C//DTD SVG 20010904//EN"
 "http://www.w3.org/TR/2001/REC-SVG-20010904/DTD/svg10.dtd">
<svg version="1.0" xmlns="http://www.w3.org/2000/svg"
 width="308.000000pt" height="308.000000pt" viewBox="0 0 308.000000 308.000000"
 preserveAspectRatio="xMidYMid meet">
<metadata>
Created by potrace 1.11, written by Peter Selinger 2001-2013
</metadata>
<g transform="translate(0.000000,308.000000) scale(0.100000,-0.100000)"
fill="#000000" stroke="none">
<path d="M24 2968 c13 -24 53 -95 90 -158 38 -63 80 -137 96 -165 15 -27 49
-86 75 -130 53 -88 75 -128 113 -195 13 -25 31 -52 38 -61 8 -8 14 -19 14 -23
0 -5 29 -57 65 -117 36 -59 65 -110 65 -112 0 -2 25 -45 55 -95 30 -50 55 -96
55 -102 0 -5 5 -10 10 -10 6 0 10 -4 10 -9 0 -6 32 -65 72 -132 39 -68 71
-128 71 -134 0 -5 -31 -62 -68 -125 -37 -63 -75 -128 -85 -145 -9 -16 -89
-154 -177 -306 -89 -152 -172 -296 -186 -320 -13 -24 -48 -84 -77 -134 -29
-49 -60 -103 -70 -120 -9 -16 -38 -65 -64 -108 -25 -43 -46 -80 -46 -82 0 -3
-14 -26 -30 -52 -17 -26 -30 -51 -30 -55 0 -4 296 -8 659 -8 l659 0 98 171
c55 95 103 172 107 173 5 1 52 -75 106 -169 l99 -170 661 -3 c364 -1 660 1
658 5 -2 5 -37 66 -78 136 -41 70 -78 136 -84 145 -5 10 -120 208 -255 440
-135 232 -249 430 -255 440 -5 9 -31 53 -56 97 -126 217 -121 206 -104 225 8
9 15 19 15 22 0 5 95 172 129 228 6 8 42 71 82 140 40 69 129 222 197 340 69
118 133 229 142 245 10 17 71 123 137 236 66 114 123 214 126 223 6 15 -49 16
-652 16 l-657 0 -80 -137 c-43 -75 -81 -142 -84 -148 -3 -5 -16 -27 -29 -48
-26 -43 -26 -43 -72 43 -13 25 -28 49 -32 55 -4 5 -36 60 -71 120 l-63 110
-661 3 -662 2 24 -42z"/>
</g>
</svg>
